<svg xmlns="http://www.w3.org/2000/svg" version="1.1" xmlns:xlink="http://www.w3.org/1999/xlink" width="1000" height="1000"><g clip-path="url(#SvgjsClipPath1036)"><rect width="1000" height="1000" fill="#0170a3"></rect><g transform="matrix(0.9722222222222222,0,0,0.9722222222222222,150,150)"><svg xmlns="http://www.w3.org/2000/svg" version="1.1" xmlns:xlink="http://www.w3.org/1999/xlink" width="720" height="720"><svg viewBox="0 0 720 720" xmlns="http://www.w3.org/2000/svg" xml:space="preserve" fill="#FFFFFF" fill-rule="evenodd" clip-rule="evenodd" stroke-linejoin="round" stroke-miterlimit="2">
  <path d="M5040,8459C4970,8447 4877,8403 4823,8356C4796,8332 4767,8291 4743,8242C4743,8242 4708.15,8165.936 4705,8066C4700.898,7935.885 4702,7462 4702,7462L4699,6757L4663,6763C4600,6774 4466,6844 4420,6891C4368,6945 4314,7027 4295,7081C4287,7103 4276,7174 4271,7239C4265,7308 4253,7380 4241,7414C4180,7587 4026,7688 3836,7678C3653,7668 3510,7550 3464,7370C3422,7206 3481,6877 3592,6655C3692,6457 3857,6273 4038,6160C4245,6031 4287,6000 4359,5928C4531,5755 4651,5501 4689,5226C4690.807,5212.937 4698.955,4955.709 4699.415,4672.535C4699.618,4547.179 4698.787,4421.822 4698,4296.469C4697.414,4203.009 4691.18,4144.02 4691,4140C4686.726,4144.365 4670.394,4154.065 4644,4188C4623,4214 4566,4278 4518,4330C4395,4465 4354,4521 4299,4635C4217,4806 4208,4855 4201,5225C4201,5225 4199.667,5515.667 4163,5612C4131.717,5694.19 4062,5763 3981,5803C3914.76,5835.559 3877.38,5834.985 3825,5835C3789.279,5835.01 3737.364,5835.798 3673,5806C3597,5771 3520,5693 3482,5613C3456,5557 3455,5549 3450,5325L3445,5095L3374,5165C3249,5289 3160,5446 3114,5625C3092,5710 3087,5757 3081,5940C3074,6143 3072,6158 3048,6212C3033,6244 3000,6292 2974,6321C2887,6413 2798,6450 2665,6451C2544,6451 2473,6436 2384,6345C2311.259,6270.625 2277,6195 2272,5955C2265,5606 2313,5369 2445,5094C2597,4779 2850,4506 3184,4296C3229,4268 3363,4191 3482,4126C3727,3991 3836,3917 3962,3800C4279,3506 4490,3111 4566,2665C4576,2608 4584,2472 4588,2295C4588,2295 4587.833,2043.5 4623,1958C4654.56,1881.27 4727,1818 4799,1782C4854,1755 4858,1755 5085,1752C5397,1747 5476,1765 5574,1863C5646,1936 5661,1980 5676,2183C5684,2281 5697,2396 5706,2438C5777,2789 6039,3240 6310,3479C6445,3598 6611,3702 6790,3778C7001,3868 7144,3953 7290,4076C7631,4361 7866,4805 7945,5310C7967,5451 7977,5816 7961,5892C7902,6174 7599,6315 7362,6173C7282,6125 7244,6085 7207,6011C7177,5948 7176,5945 7168,5746C7159,5503 7147,5400 7110,5255C7061,5061 6977,4890 6881,4787L6823,4726L6818,4861C6813,4964 6807,5008 6791,5051C6757,5139 6712,5199 6647,5241C6461,5361 6217,5288 6122,5082C6097,5028 6095,5015 6089,4800C6082,4577 6078,4545 6037,4435C6011,4363 5943,4237 5891,4163C5850,4104 5665,3894 5563,3790L5543,4145C5547,4487 5549,4534 5568,4611C5657,4981 5842,5271 6120,5480C6237,5567 6441,5775 6523,5890C6645,6062 6745,6291 6790,6498C6836,6713 6841,6995 6800,7103C6695,7381 6316,7451 6116,7230C6044,7150 6023,7081 6015,6891C6012,6816 6002,6719 5994,6675C5955,6469 5819,6261 5646,6142C5605,6113 5565,6087 5556,6084C5549.339,6081.335 5547.337,6107.117 5547.172,6109.25C5535.562,6258.828 5544.882,7694.985 5533.25,8066.375C5528.695,8211.823 5492.955,8249.314 5480,8270C5446,8323 5389,8379 5340,8407C5259,8454 5137,8475 5040,8459Z" fill-rule="nonzero" transform="matrix(.1 0 0 -.1 -152 872)"></path>
</svg></svg></g></g><defs><clipPath id="SvgjsClipPath1036"><rect width="1000" height="1000" x="0" y="0" rx="500" ry="500"></rect></clipPath></defs></svg>